<mxfile host="app.diagrams.net" modified="2024-06-05T13:43:37.440Z" agent="Mozilla/5.0 (Windows NT 10.0; Win64; x64) AppleWebKit/537.36 (KHTML, like Gecko) Chrome/125.0.0.0 Safari/537.36" etag="2ez-tRbXQvk6xyIsYr7c" version="24.4.14" type="device">
  <diagram id="LpyE7eDr6U_uzjzbmN5b" name="Page-1">
    <mxGraphModel dx="2085" dy="1864" grid="1" gridSize="10" guides="1" tooltips="1" connect="1" arrows="1" fold="1" page="1" pageScale="1" pageWidth="827" pageHeight="1169" math="0" shadow="0">
      <root>
        <mxCell id="0" />
        <mxCell id="1" parent="0" />
        <mxCell id="SSudsI05tBBpJAVK4lt_-2" value="&lt;span style=&quot;font-weight: normal;&quot;&gt;FactSchool&lt;/span&gt;" style="swimlane;whiteSpace=wrap;html=1;labelBackgroundColor=none;fillColor=#F2CC8F;strokeColor=#E07A5F;fontColor=#393C56;" parent="1" vertex="1">
          <mxGeometry x="-280" y="50" width="190" height="150" as="geometry" />
        </mxCell>
        <mxCell id="SSudsI05tBBpJAVK4lt_-3" value="fact_school_key (PK)" style="text;html=1;align=left;verticalAlign=middle;resizable=0;points=[];autosize=1;strokeColor=none;fillColor=none;labelBackgroundColor=none;fontColor=#393C56;" parent="SSudsI05tBBpJAVK4lt_-2" vertex="1">
          <mxGeometry x="14" y="30" width="140" height="30" as="geometry" />
        </mxCell>
        <mxCell id="SSudsI05tBBpJAVK4lt_-4" value="dim_school_key (FK)" style="text;html=1;align=left;verticalAlign=middle;resizable=0;points=[];autosize=1;strokeColor=none;fillColor=none;labelBackgroundColor=none;fontColor=#393C56;" parent="SSudsI05tBBpJAVK4lt_-2" vertex="1">
          <mxGeometry x="14" y="60" width="140" height="30" as="geometry" />
        </mxCell>
        <mxCell id="SSudsI05tBBpJAVK4lt_-5" value="dim_location_key (FK)" style="text;html=1;align=left;verticalAlign=middle;resizable=0;points=[];autosize=1;strokeColor=none;fillColor=none;labelBackgroundColor=none;fontColor=#393C56;" parent="SSudsI05tBBpJAVK4lt_-2" vertex="1">
          <mxGeometry x="14" y="90" width="140" height="30" as="geometry" />
        </mxCell>
        <mxCell id="SSudsI05tBBpJAVK4lt_-6" value="&lt;span style=&quot;font-weight: normal;&quot;&gt;FactTransport&lt;/span&gt;" style="swimlane;whiteSpace=wrap;html=1;labelBackgroundColor=none;fillColor=#F2CC8F;strokeColor=#E07A5F;fontColor=#393C56;" parent="1" vertex="1">
          <mxGeometry x="-280" y="270" width="190" height="150" as="geometry" />
        </mxCell>
        <mxCell id="SSudsI05tBBpJAVK4lt_-7" value="fact_transport_key (PK)" style="text;html=1;align=left;verticalAlign=middle;resizable=0;points=[];autosize=1;strokeColor=none;fillColor=none;labelBackgroundColor=none;fontColor=#393C56;" parent="SSudsI05tBBpJAVK4lt_-6" vertex="1">
          <mxGeometry x="13" y="30" width="150" height="30" as="geometry" />
        </mxCell>
        <mxCell id="SSudsI05tBBpJAVK4lt_-8" value="dim_transport_key (FK)" style="text;html=1;align=left;verticalAlign=middle;resizable=0;points=[];autosize=1;strokeColor=none;fillColor=none;labelBackgroundColor=none;fontColor=#393C56;" parent="SSudsI05tBBpJAVK4lt_-6" vertex="1">
          <mxGeometry x="14" y="60" width="150" height="30" as="geometry" />
        </mxCell>
        <mxCell id="SSudsI05tBBpJAVK4lt_-9" value="dim_location_key (FK)" style="text;html=1;align=left;verticalAlign=middle;resizable=0;points=[];autosize=1;strokeColor=none;fillColor=none;labelBackgroundColor=none;fontColor=#393C56;" parent="SSudsI05tBBpJAVK4lt_-6" vertex="1">
          <mxGeometry x="14" y="90" width="140" height="30" as="geometry" />
        </mxCell>
        <mxCell id="SSudsI05tBBpJAVK4lt_-11" value="&lt;span style=&quot;font-weight: normal;&quot;&gt;DimLocation&lt;/span&gt;" style="swimlane;whiteSpace=wrap;html=1;labelBackgroundColor=none;fillColor=#F2CC8F;strokeColor=#E07A5F;fontColor=#393C56;" parent="1" vertex="1">
          <mxGeometry x="84" y="60" width="176" height="360" as="geometry" />
        </mxCell>
        <mxCell id="SSudsI05tBBpJAVK4lt_-12" value="dim_location_key (PK)" style="text;html=1;align=left;verticalAlign=middle;resizable=0;points=[];autosize=1;strokeColor=none;fillColor=none;labelBackgroundColor=none;fontColor=#393C56;" parent="SSudsI05tBBpJAVK4lt_-11" vertex="1">
          <mxGeometry x="14" y="30" width="140" height="30" as="geometry" />
        </mxCell>
        <mxCell id="SSudsI05tBBpJAVK4lt_-13" value="statecode_suburb (BK)" style="text;html=1;align=left;verticalAlign=middle;resizable=0;points=[];autosize=1;strokeColor=none;fillColor=none;labelBackgroundColor=none;fontColor=#393C56;" parent="SSudsI05tBBpJAVK4lt_-11" vertex="1">
          <mxGeometry x="14" y="60" width="150" height="30" as="geometry" />
        </mxCell>
        <mxCell id="SSudsI05tBBpJAVK4lt_-14" value="suburb" style="text;html=1;align=left;verticalAlign=middle;resizable=0;points=[];autosize=1;strokeColor=none;fillColor=none;labelBackgroundColor=none;fontColor=#393C56;" parent="SSudsI05tBBpJAVK4lt_-11" vertex="1">
          <mxGeometry x="14" y="90" width="60" height="30" as="geometry" />
        </mxCell>
        <mxCell id="SSudsI05tBBpJAVK4lt_-15" value="city" style="text;html=1;align=left;verticalAlign=middle;resizable=0;points=[];autosize=1;strokeColor=none;fillColor=none;labelBackgroundColor=none;fontColor=#393C56;" parent="SSudsI05tBBpJAVK4lt_-11" vertex="1">
          <mxGeometry x="14" y="120" width="40" height="30" as="geometry" />
        </mxCell>
        <mxCell id="SSudsI05tBBpJAVK4lt_-16" value="state" style="text;html=1;align=left;verticalAlign=middle;resizable=0;points=[];autosize=1;strokeColor=none;fillColor=none;labelBackgroundColor=none;fontColor=#393C56;" parent="SSudsI05tBBpJAVK4lt_-11" vertex="1">
          <mxGeometry x="14" y="150" width="50" height="30" as="geometry" />
        </mxCell>
        <mxCell id="SSudsI05tBBpJAVK4lt_-18" value="state_code" style="text;html=1;align=left;verticalAlign=middle;resizable=0;points=[];autosize=1;strokeColor=none;fillColor=none;labelBackgroundColor=none;fontColor=#393C56;" parent="SSudsI05tBBpJAVK4lt_-11" vertex="1">
          <mxGeometry x="14" y="180" width="80" height="30" as="geometry" />
        </mxCell>
        <mxCell id="SSudsI05tBBpJAVK4lt_-19" value="latitude" style="text;html=1;align=left;verticalAlign=middle;resizable=0;points=[];autosize=1;strokeColor=none;fillColor=none;labelBackgroundColor=none;fontColor=#393C56;" parent="SSudsI05tBBpJAVK4lt_-11" vertex="1">
          <mxGeometry x="14" y="210" width="60" height="30" as="geometry" />
        </mxCell>
        <mxCell id="SSudsI05tBBpJAVK4lt_-20" value="longitude" style="text;html=1;align=left;verticalAlign=middle;resizable=0;points=[];autosize=1;strokeColor=none;fillColor=none;labelBackgroundColor=none;fontColor=#393C56;" parent="SSudsI05tBBpJAVK4lt_-11" vertex="1">
          <mxGeometry x="14" y="240" width="70" height="30" as="geometry" />
        </mxCell>
        <mxCell id="SSudsI05tBBpJAVK4lt_-21" value="start_date" style="text;html=1;align=left;verticalAlign=middle;resizable=0;points=[];autosize=1;strokeColor=none;fillColor=none;labelBackgroundColor=none;fontColor=#393C56;" parent="SSudsI05tBBpJAVK4lt_-11" vertex="1">
          <mxGeometry x="14" y="270" width="80" height="30" as="geometry" />
        </mxCell>
        <mxCell id="SSudsI05tBBpJAVK4lt_-22" value="end_date" style="text;html=1;align=left;verticalAlign=middle;resizable=0;points=[];autosize=1;strokeColor=none;fillColor=none;labelBackgroundColor=none;fontColor=#393C56;" parent="SSudsI05tBBpJAVK4lt_-11" vertex="1">
          <mxGeometry x="14" y="300" width="70" height="30" as="geometry" />
        </mxCell>
        <mxCell id="SSudsI05tBBpJAVK4lt_-23" value="&lt;span style=&quot;font-weight: normal;&quot;&gt;DimSchool&lt;/span&gt;" style="swimlane;whiteSpace=wrap;html=1;labelBackgroundColor=none;fillColor=#F2CC8F;strokeColor=#E07A5F;fontColor=#393C56;" parent="1" vertex="1">
          <mxGeometry x="-690" y="-100" width="294" height="390" as="geometry" />
        </mxCell>
        <mxCell id="SSudsI05tBBpJAVK4lt_-24" value="dim_school_key (PK)" style="text;html=1;align=left;verticalAlign=middle;resizable=0;points=[];autosize=1;strokeColor=none;fillColor=none;labelBackgroundColor=none;fontColor=#393C56;" parent="SSudsI05tBBpJAVK4lt_-23" vertex="1">
          <mxGeometry x="14" y="30" width="140" height="30" as="geometry" />
        </mxCell>
        <mxCell id="SSudsI05tBBpJAVK4lt_-25" value="statecode_schoolcode_schoolname (BK)" style="text;html=1;align=left;verticalAlign=middle;resizable=0;points=[];autosize=1;strokeColor=none;fillColor=none;labelBackgroundColor=none;fontColor=#393C56;" parent="SSudsI05tBBpJAVK4lt_-23" vertex="1">
          <mxGeometry x="14" y="60" width="240" height="30" as="geometry" />
        </mxCell>
        <mxCell id="SSudsI05tBBpJAVK4lt_-26" value="state_code" style="text;html=1;align=left;verticalAlign=middle;resizable=0;points=[];autosize=1;strokeColor=none;fillColor=none;labelBackgroundColor=none;fontColor=#393C56;" parent="SSudsI05tBBpJAVK4lt_-23" vertex="1">
          <mxGeometry x="14" y="90" width="80" height="30" as="geometry" />
        </mxCell>
        <mxCell id="SSudsI05tBBpJAVK4lt_-27" value="school_code" style="text;html=1;align=left;verticalAlign=middle;resizable=0;points=[];autosize=1;strokeColor=none;fillColor=none;labelBackgroundColor=none;fontColor=#393C56;" parent="SSudsI05tBBpJAVK4lt_-23" vertex="1">
          <mxGeometry x="14" y="180" width="90" height="30" as="geometry" />
        </mxCell>
        <mxCell id="SSudsI05tBBpJAVK4lt_-28" value="school_type" style="text;html=1;align=left;verticalAlign=middle;resizable=0;points=[];autosize=1;strokeColor=none;fillColor=none;labelBackgroundColor=none;fontColor=#393C56;" parent="SSudsI05tBBpJAVK4lt_-23" vertex="1">
          <mxGeometry x="14" y="240" width="90" height="30" as="geometry" />
        </mxCell>
        <mxCell id="SSudsI05tBBpJAVK4lt_-29" value="address (derived column replace NULL to blank)" style="text;html=1;align=left;verticalAlign=middle;resizable=0;points=[];autosize=1;strokeColor=none;fillColor=none;labelBackgroundColor=none;fontColor=#393C56;" parent="SSudsI05tBBpJAVK4lt_-23" vertex="1">
          <mxGeometry x="14" y="270" width="280" height="30" as="geometry" />
        </mxCell>
        <mxCell id="SSudsI05tBBpJAVK4lt_-34" value="start_date" style="text;html=1;align=left;verticalAlign=middle;resizable=0;points=[];autosize=1;strokeColor=none;fillColor=none;labelBackgroundColor=none;fontColor=#393C56;" parent="SSudsI05tBBpJAVK4lt_-23" vertex="1">
          <mxGeometry x="14" y="330" width="80" height="30" as="geometry" />
        </mxCell>
        <mxCell id="SSudsI05tBBpJAVK4lt_-35" value="end_date" style="text;html=1;align=left;verticalAlign=middle;resizable=0;points=[];autosize=1;strokeColor=none;fillColor=none;labelBackgroundColor=none;fontColor=#393C56;" parent="SSudsI05tBBpJAVK4lt_-23" vertex="1">
          <mxGeometry x="14" y="360" width="70" height="30" as="geometry" />
        </mxCell>
        <mxCell id="SSudsI05tBBpJAVK4lt_-36" value="suburb" style="text;html=1;align=left;verticalAlign=middle;resizable=0;points=[];autosize=1;strokeColor=none;fillColor=none;labelBackgroundColor=none;fontColor=#393C56;" parent="SSudsI05tBBpJAVK4lt_-23" vertex="1">
          <mxGeometry x="14" y="120" width="60" height="30" as="geometry" />
        </mxCell>
        <mxCell id="SSudsI05tBBpJAVK4lt_-37" value="postcode" style="text;html=1;align=left;verticalAlign=middle;resizable=0;points=[];autosize=1;strokeColor=none;fillColor=none;labelBackgroundColor=none;fontColor=#393C56;" parent="SSudsI05tBBpJAVK4lt_-23" vertex="1">
          <mxGeometry x="14" y="150" width="70" height="30" as="geometry" />
        </mxCell>
        <mxCell id="SSudsI05tBBpJAVK4lt_-38" value="school_name" style="text;html=1;align=left;verticalAlign=middle;resizable=0;points=[];autosize=1;strokeColor=none;fillColor=none;labelBackgroundColor=none;fontColor=#393C56;" parent="SSudsI05tBBpJAVK4lt_-23" vertex="1">
          <mxGeometry x="14" y="210" width="90" height="30" as="geometry" />
        </mxCell>
        <mxCell id="DaXFJ3aukXbAvADmvk1K-3" value="statecode_suburb (FK)" style="text;html=1;align=left;verticalAlign=middle;resizable=0;points=[];autosize=1;strokeColor=none;fillColor=none;labelBackgroundColor=none;fontColor=#393C56;" vertex="1" parent="SSudsI05tBBpJAVK4lt_-23">
          <mxGeometry x="14" y="300" width="150" height="30" as="geometry" />
        </mxCell>
        <mxCell id="SSudsI05tBBpJAVK4lt_-40" value="" style="edgeStyle=segmentEdgeStyle;endArrow=classic;html=1;curved=0;rounded=0;endSize=8;startSize=8;labelBackgroundColor=none;strokeColor=#E07A5F;fontColor=default;" parent="1" edge="1">
          <mxGeometry width="50" height="50" relative="1" as="geometry">
            <mxPoint x="58" y="200" as="sourcePoint" />
            <mxPoint x="-90" y="120" as="targetPoint" />
            <Array as="points">
              <mxPoint x="30" y="200" />
              <mxPoint x="30" y="120" />
            </Array>
          </mxGeometry>
        </mxCell>
        <mxCell id="SSudsI05tBBpJAVK4lt_-41" value="" style="edgeStyle=segmentEdgeStyle;endArrow=classic;html=1;curved=0;rounded=0;endSize=8;startSize=8;labelBackgroundColor=none;strokeColor=#E07A5F;fontColor=default;" parent="1" edge="1">
          <mxGeometry width="50" height="50" relative="1" as="geometry">
            <mxPoint x="27" y="200" as="sourcePoint" />
            <mxPoint x="-90" y="345" as="targetPoint" />
            <Array as="points">
              <mxPoint x="30" y="200" />
              <mxPoint x="30" y="345" />
            </Array>
          </mxGeometry>
        </mxCell>
        <mxCell id="SSudsI05tBBpJAVK4lt_-42" value="" style="edgeStyle=elbowEdgeStyle;elbow=horizontal;endArrow=classic;html=1;curved=0;rounded=0;endSize=8;startSize=8;exitX=1;exitY=0.5;exitDx=0;exitDy=0;labelBackgroundColor=none;strokeColor=#E07A5F;fontColor=default;" parent="1" source="SSudsI05tBBpJAVK4lt_-23" edge="1">
          <mxGeometry width="50" height="50" relative="1" as="geometry">
            <mxPoint x="-400" y="180" as="sourcePoint" />
            <mxPoint x="-280" y="130" as="targetPoint" />
          </mxGeometry>
        </mxCell>
        <mxCell id="SSudsI05tBBpJAVK4lt_-43" value="&lt;span style=&quot;font-weight: normal;&quot;&gt;DimTransport&lt;/span&gt;" style="swimlane;whiteSpace=wrap;html=1;labelBackgroundColor=none;fillColor=#F2CC8F;strokeColor=#E07A5F;fontColor=#393C56;" parent="1" vertex="1">
          <mxGeometry x="-680" y="350" width="220" height="370" as="geometry" />
        </mxCell>
        <mxCell id="SSudsI05tBBpJAVK4lt_-44" value="dim_transport_key (PK)" style="text;html=1;align=left;verticalAlign=middle;resizable=0;points=[];autosize=1;strokeColor=none;fillColor=none;labelBackgroundColor=none;fontColor=#393C56;" parent="SSudsI05tBBpJAVK4lt_-43" vertex="1">
          <mxGeometry x="14" y="30" width="150" height="30" as="geometry" />
        </mxCell>
        <mxCell id="SSudsI05tBBpJAVK4lt_-45" value="statecode_suburb_stopname (BK)" style="text;html=1;align=left;verticalAlign=middle;resizable=0;points=[];autosize=1;strokeColor=none;fillColor=none;labelBackgroundColor=none;fontColor=#393C56;" parent="SSudsI05tBBpJAVK4lt_-43" vertex="1">
          <mxGeometry x="14" y="60" width="210" height="30" as="geometry" />
        </mxCell>
        <mxCell id="SSudsI05tBBpJAVK4lt_-46" value="state_code" style="text;html=1;align=left;verticalAlign=middle;resizable=0;points=[];autosize=1;strokeColor=none;fillColor=none;labelBackgroundColor=none;fontColor=#393C56;" parent="SSudsI05tBBpJAVK4lt_-43" vertex="1">
          <mxGeometry x="14" y="90" width="80" height="30" as="geometry" />
        </mxCell>
        <mxCell id="SSudsI05tBBpJAVK4lt_-47" value="mode" style="text;html=1;align=left;verticalAlign=middle;resizable=0;points=[];autosize=1;strokeColor=none;fillColor=none;labelBackgroundColor=none;fontColor=#393C56;" parent="SSudsI05tBBpJAVK4lt_-43" vertex="1">
          <mxGeometry x="14" y="180" width="50" height="30" as="geometry" />
        </mxCell>
        <mxCell id="SSudsI05tBBpJAVK4lt_-48" value="stop_longitude" style="text;html=1;align=left;verticalAlign=middle;resizable=0;points=[];autosize=1;strokeColor=none;fillColor=none;labelBackgroundColor=none;fontColor=#393C56;" parent="SSudsI05tBBpJAVK4lt_-43" vertex="1">
          <mxGeometry x="14" y="240" width="100" height="30" as="geometry" />
        </mxCell>
        <mxCell id="SSudsI05tBBpJAVK4lt_-50" value="start_date" style="text;html=1;align=left;verticalAlign=middle;resizable=0;points=[];autosize=1;strokeColor=none;fillColor=none;labelBackgroundColor=none;fontColor=#393C56;" parent="SSudsI05tBBpJAVK4lt_-43" vertex="1">
          <mxGeometry x="14" y="300" width="80" height="30" as="geometry" />
        </mxCell>
        <mxCell id="SSudsI05tBBpJAVK4lt_-51" value="end_date" style="text;html=1;align=left;verticalAlign=middle;resizable=0;points=[];autosize=1;strokeColor=none;fillColor=none;labelBackgroundColor=none;fontColor=#393C56;" parent="SSudsI05tBBpJAVK4lt_-43" vertex="1">
          <mxGeometry x="14" y="330" width="70" height="30" as="geometry" />
        </mxCell>
        <mxCell id="SSudsI05tBBpJAVK4lt_-52" value="suburb" style="text;html=1;align=left;verticalAlign=middle;resizable=0;points=[];autosize=1;strokeColor=none;fillColor=none;labelBackgroundColor=none;fontColor=#393C56;" parent="SSudsI05tBBpJAVK4lt_-43" vertex="1">
          <mxGeometry x="14" y="120" width="60" height="30" as="geometry" />
        </mxCell>
        <mxCell id="SSudsI05tBBpJAVK4lt_-53" value="stop_name" style="text;html=1;align=left;verticalAlign=middle;resizable=0;points=[];autosize=1;strokeColor=none;fillColor=none;labelBackgroundColor=none;fontColor=#393C56;" parent="SSudsI05tBBpJAVK4lt_-43" vertex="1">
          <mxGeometry x="14" y="150" width="80" height="30" as="geometry" />
        </mxCell>
        <mxCell id="SSudsI05tBBpJAVK4lt_-54" value="stop_latitude" style="text;html=1;align=left;verticalAlign=middle;resizable=0;points=[];autosize=1;strokeColor=none;fillColor=none;labelBackgroundColor=none;fontColor=#393C56;" parent="SSudsI05tBBpJAVK4lt_-43" vertex="1">
          <mxGeometry x="14" y="210" width="90" height="30" as="geometry" />
        </mxCell>
        <mxCell id="p3U7jz0xiZvYKAJ0fplJ-6" value="statecode_suburb (FK)" style="text;html=1;align=left;verticalAlign=middle;resizable=0;points=[];autosize=1;strokeColor=none;fillColor=none;labelBackgroundColor=none;fontColor=#393C56;" parent="SSudsI05tBBpJAVK4lt_-43" vertex="1">
          <mxGeometry x="14" y="270" width="150" height="30" as="geometry" />
        </mxCell>
        <mxCell id="SSudsI05tBBpJAVK4lt_-55" value="" style="edgeStyle=elbowEdgeStyle;elbow=horizontal;endArrow=classic;html=1;curved=0;rounded=0;endSize=8;startSize=8;labelBackgroundColor=none;strokeColor=#E07A5F;fontColor=default;" parent="1" edge="1">
          <mxGeometry width="50" height="50" relative="1" as="geometry">
            <mxPoint x="-460" y="435" as="sourcePoint" />
            <mxPoint x="-280" y="360" as="targetPoint" />
            <Array as="points">
              <mxPoint x="-400" y="625" />
            </Array>
          </mxGeometry>
        </mxCell>
        <mxCell id="SSudsI05tBBpJAVK4lt_-56" value="&lt;span style=&quot;font-weight: normal;&quot;&gt;FactCrime&lt;/span&gt;" style="swimlane;whiteSpace=wrap;html=1;labelBackgroundColor=none;fillColor=#F2CC8F;strokeColor=#E07A5F;fontColor=#393C56;" parent="1" vertex="1">
          <mxGeometry x="-300" y="470" width="210" height="290" as="geometry" />
        </mxCell>
        <mxCell id="SSudsI05tBBpJAVK4lt_-57" value="fact_crime_key (PK)" style="text;html=1;align=left;verticalAlign=middle;resizable=0;points=[];autosize=1;strokeColor=none;fillColor=none;labelBackgroundColor=none;fontColor=#393C56;" parent="SSudsI05tBBpJAVK4lt_-56" vertex="1">
          <mxGeometry x="13" y="30" width="130" height="30" as="geometry" />
        </mxCell>
        <mxCell id="SSudsI05tBBpJAVK4lt_-58" value="dim_location_key&amp;nbsp;(FK)" style="text;html=1;align=left;verticalAlign=middle;resizable=0;points=[];autosize=1;strokeColor=none;fillColor=none;labelBackgroundColor=none;fontColor=#393C56;" parent="SSudsI05tBBpJAVK4lt_-56" vertex="1">
          <mxGeometry x="14" y="60" width="140" height="30" as="geometry" />
        </mxCell>
        <mxCell id="SSudsI05tBBpJAVK4lt_-59" value="state_code" style="text;html=1;align=left;verticalAlign=middle;resizable=0;points=[];autosize=1;strokeColor=none;fillColor=none;labelBackgroundColor=none;fontColor=#393C56;" parent="SSudsI05tBBpJAVK4lt_-56" vertex="1">
          <mxGeometry x="14" y="91" width="80" height="30" as="geometry" />
        </mxCell>
        <mxCell id="SSudsI05tBBpJAVK4lt_-61" value="postcode" style="text;html=1;align=left;verticalAlign=middle;resizable=0;points=[];autosize=1;strokeColor=none;fillColor=none;labelBackgroundColor=none;fontColor=#393C56;" parent="SSudsI05tBBpJAVK4lt_-56" vertex="1">
          <mxGeometry x="13" y="150" width="70" height="30" as="geometry" />
        </mxCell>
        <mxCell id="SSudsI05tBBpJAVK4lt_-60" value="suburb" style="text;html=1;align=left;verticalAlign=middle;resizable=0;points=[];autosize=1;strokeColor=none;fillColor=none;labelBackgroundColor=none;fontColor=#393C56;" parent="SSudsI05tBBpJAVK4lt_-56" vertex="1">
          <mxGeometry x="13" y="121" width="60" height="30" as="geometry" />
        </mxCell>
        <mxCell id="SSudsI05tBBpJAVK4lt_-62" value="offence_category" style="text;html=1;align=left;verticalAlign=middle;resizable=0;points=[];autosize=1;strokeColor=none;fillColor=none;labelBackgroundColor=none;fontColor=#393C56;" parent="SSudsI05tBBpJAVK4lt_-56" vertex="1">
          <mxGeometry x="14" y="180" width="120" height="30" as="geometry" />
        </mxCell>
        <mxCell id="SSudsI05tBBpJAVK4lt_-63" value="offence_subcategory" style="text;html=1;align=left;verticalAlign=middle;resizable=0;points=[];autosize=1;strokeColor=none;fillColor=none;labelBackgroundColor=none;fontColor=#393C56;" parent="SSudsI05tBBpJAVK4lt_-56" vertex="1">
          <mxGeometry x="14" y="210" width="130" height="30" as="geometry" />
        </mxCell>
        <mxCell id="SSudsI05tBBpJAVK4lt_-64" value="recorded_incidents" style="text;html=1;align=left;verticalAlign=middle;resizable=0;points=[];autosize=1;strokeColor=none;fillColor=none;labelBackgroundColor=none;fontColor=#393C56;" parent="SSudsI05tBBpJAVK4lt_-56" vertex="1">
          <mxGeometry x="14" y="240" width="120" height="30" as="geometry" />
        </mxCell>
        <mxCell id="SSudsI05tBBpJAVK4lt_-65" value="" style="edgeStyle=segmentEdgeStyle;endArrow=classic;html=1;curved=0;rounded=0;endSize=8;startSize=8;labelBackgroundColor=none;strokeColor=#E07A5F;fontColor=default;" parent="1" edge="1">
          <mxGeometry width="50" height="50" relative="1" as="geometry">
            <mxPoint x="40" y="200" as="sourcePoint" />
            <mxPoint x="-90" y="590" as="targetPoint" />
            <Array as="points">
              <mxPoint x="30" y="200" />
              <mxPoint x="30" y="590" />
            </Array>
          </mxGeometry>
        </mxCell>
        <mxCell id="SSudsI05tBBpJAVK4lt_-66" value="&lt;span style=&quot;font-weight: normal;&quot;&gt;FactHouseValue&lt;/span&gt;" style="swimlane;whiteSpace=wrap;html=1;labelBackgroundColor=none;fillColor=#F2CC8F;strokeColor=#E07A5F;fontColor=#393C56;" parent="1" vertex="1">
          <mxGeometry x="-350" y="-190" width="304" height="210" as="geometry" />
        </mxCell>
        <mxCell id="SSudsI05tBBpJAVK4lt_-67" value="fact_house_key (PK)" style="text;html=1;align=left;verticalAlign=middle;resizable=0;points=[];autosize=1;strokeColor=none;fillColor=none;labelBackgroundColor=none;fontColor=#393C56;" parent="SSudsI05tBBpJAVK4lt_-66" vertex="1">
          <mxGeometry x="14" y="30" width="130" height="30" as="geometry" />
        </mxCell>
        <mxCell id="SSudsI05tBBpJAVK4lt_-68" value="dim_location_key (FK)" style="text;html=1;align=left;verticalAlign=middle;resizable=0;points=[];autosize=1;strokeColor=none;fillColor=none;labelBackgroundColor=none;fontColor=#393C56;" parent="SSudsI05tBBpJAVK4lt_-66" vertex="1">
          <mxGeometry x="14" y="60" width="140" height="30" as="geometry" />
        </mxCell>
        <mxCell id="SSudsI05tBBpJAVK4lt_-69" value="state_code" style="text;html=1;align=left;verticalAlign=middle;resizable=0;points=[];autosize=1;strokeColor=none;fillColor=none;labelBackgroundColor=none;fontColor=#393C56;" parent="SSudsI05tBBpJAVK4lt_-66" vertex="1">
          <mxGeometry x="14" y="91" width="80" height="30" as="geometry" />
        </mxCell>
        <mxCell id="SSudsI05tBBpJAVK4lt_-70" value="suburb" style="text;html=1;align=left;verticalAlign=middle;resizable=0;points=[];autosize=1;strokeColor=none;fillColor=none;labelBackgroundColor=none;fontColor=#393C56;" parent="SSudsI05tBBpJAVK4lt_-66" vertex="1">
          <mxGeometry x="14" y="121" width="60" height="30" as="geometry" />
        </mxCell>
        <mxCell id="SSudsI05tBBpJAVK4lt_-71" value="postcode (derived column replace NULL to blank)" style="text;html=1;align=left;verticalAlign=middle;resizable=0;points=[];autosize=1;strokeColor=none;fillColor=none;labelBackgroundColor=none;fontColor=#393C56;" parent="SSudsI05tBBpJAVK4lt_-66" vertex="1">
          <mxGeometry x="14" y="151" width="290" height="30" as="geometry" />
        </mxCell>
        <mxCell id="SSudsI05tBBpJAVK4lt_-72" value="house_value (derived column replace NULL to 0)" style="text;html=1;align=left;verticalAlign=middle;resizable=0;points=[];autosize=1;strokeColor=none;fillColor=none;labelBackgroundColor=none;fontColor=#393C56;" parent="SSudsI05tBBpJAVK4lt_-66" vertex="1">
          <mxGeometry x="14" y="180" width="280" height="30" as="geometry" />
        </mxCell>
        <mxCell id="SSudsI05tBBpJAVK4lt_-73" value="" style="edgeStyle=segmentEdgeStyle;endArrow=classic;html=1;curved=0;rounded=0;endSize=8;startSize=8;labelBackgroundColor=none;strokeColor=#E07A5F;fontColor=default;" parent="1" edge="1">
          <mxGeometry width="50" height="50" relative="1" as="geometry">
            <mxPoint x="84" y="200" as="sourcePoint" />
            <mxPoint x="-46" y="-80" as="targetPoint" />
            <Array as="points">
              <mxPoint x="30" y="200" />
              <mxPoint x="30" y="-80" />
            </Array>
          </mxGeometry>
        </mxCell>
        <mxCell id="SSudsI05tBBpJAVK4lt_-74" value="&lt;span style=&quot;font-weight: normal;&quot;&gt;FactRentalValue&lt;/span&gt;" style="swimlane;whiteSpace=wrap;html=1;labelBackgroundColor=none;fillColor=#F2CC8F;strokeColor=#E07A5F;fontColor=#393C56;" parent="1" vertex="1">
          <mxGeometry x="84" y="-200" width="176" height="210" as="geometry" />
        </mxCell>
        <mxCell id="SSudsI05tBBpJAVK4lt_-75" value="fact_rental_key (PK)" style="text;html=1;align=left;verticalAlign=middle;resizable=0;points=[];autosize=1;strokeColor=none;fillColor=none;labelBackgroundColor=none;fontColor=#393C56;" parent="SSudsI05tBBpJAVK4lt_-74" vertex="1">
          <mxGeometry x="14" y="30" width="130" height="30" as="geometry" />
        </mxCell>
        <mxCell id="SSudsI05tBBpJAVK4lt_-76" value="dim_location_key (FK)" style="text;html=1;align=left;verticalAlign=middle;resizable=0;points=[];autosize=1;strokeColor=none;fillColor=none;labelBackgroundColor=none;fontColor=#393C56;" parent="SSudsI05tBBpJAVK4lt_-74" vertex="1">
          <mxGeometry x="14" y="60" width="140" height="30" as="geometry" />
        </mxCell>
        <mxCell id="SSudsI05tBBpJAVK4lt_-77" value="state_code" style="text;html=1;align=left;verticalAlign=middle;resizable=0;points=[];autosize=1;strokeColor=none;fillColor=none;labelBackgroundColor=none;fontColor=#393C56;" parent="SSudsI05tBBpJAVK4lt_-74" vertex="1">
          <mxGeometry x="14" y="91" width="80" height="30" as="geometry" />
        </mxCell>
        <mxCell id="SSudsI05tBBpJAVK4lt_-78" value="suburb" style="text;html=1;align=left;verticalAlign=middle;resizable=0;points=[];autosize=1;strokeColor=none;fillColor=none;labelBackgroundColor=none;fontColor=#393C56;" parent="SSudsI05tBBpJAVK4lt_-74" vertex="1">
          <mxGeometry x="14" y="121" width="60" height="30" as="geometry" />
        </mxCell>
        <mxCell id="SSudsI05tBBpJAVK4lt_-79" value="rental_house_type" style="text;html=1;align=left;verticalAlign=middle;resizable=0;points=[];autosize=1;strokeColor=none;fillColor=none;labelBackgroundColor=none;fontColor=#393C56;" parent="SSudsI05tBBpJAVK4lt_-74" vertex="1">
          <mxGeometry x="14" y="151" width="120" height="30" as="geometry" />
        </mxCell>
        <mxCell id="SSudsI05tBBpJAVK4lt_-80" value="rental_amount&amp;nbsp;" style="text;html=1;align=left;verticalAlign=middle;resizable=0;points=[];autosize=1;strokeColor=none;fillColor=none;labelBackgroundColor=none;fontColor=#393C56;" parent="SSudsI05tBBpJAVK4lt_-74" vertex="1">
          <mxGeometry x="14" y="180" width="100" height="30" as="geometry" />
        </mxCell>
        <mxCell id="SSudsI05tBBpJAVK4lt_-81" value="" style="edgeStyle=segmentEdgeStyle;endArrow=classic;html=1;curved=0;rounded=0;endSize=8;startSize=8;labelBackgroundColor=none;strokeColor=#E07A5F;fontColor=default;" parent="1" edge="1">
          <mxGeometry width="50" height="50" relative="1" as="geometry">
            <mxPoint x="84" y="200" as="sourcePoint" />
            <mxPoint x="84" y="-80" as="targetPoint" />
            <Array as="points">
              <mxPoint x="30" y="200" />
              <mxPoint x="30" y="-80" />
            </Array>
          </mxGeometry>
        </mxCell>
      </root>
    </mxGraphModel>
  </diagram>
</mxfile>
